<svg width="28" height="34" fill="none" xmlns="http://www.w3.org/2000/svg"><path d="M25.951 6.308c.68.117 1.134.646 1.13 1.166-.025 2.81-.359 8.594-2.403 13.978-.912 2.402-2.83 4.782-4.867 6.803-2.026 2.01-4.111 3.61-5.286 4.46a.885.885 0 0 1-1.056-.003c-1.164-.852-3.225-2.451-5.229-4.46-2.015-2.02-3.914-4.398-4.826-6.8C1.374 16.078.983 10.308.926 7.489c-.01-.526.447-1.066 1.132-1.185 1.187-.206 2.874-.633 4.894-1.516 1.62-.707 4.905-2.636 6.49-3.581.34-.203.762-.203 1.103 0 1.584.945 4.87 2.874 6.489 3.581 2.033.889 3.73 1.316 4.918 1.52Z" stroke="#fff" stroke-width="1.5"/><path d="M21.059 10.02c.704.156 1.144.696 1.127 1.196-.063 1.875-.362 4.989-1.517 7.9-.53 1.336-1.62 2.684-2.836 3.875-1.206 1.18-2.482 2.154-3.318 2.748a.855.855 0 0 1-1.006-.002 28.351 28.351 0 0 1-3.28-2.748c-1.203-1.19-2.283-2.537-2.812-3.873-1.152-2.903-1.48-6.007-1.565-7.885-.023-.506.42-1.058 1.131-1.216a15.281 15.281 0 0 0 2.571-.827c.972-.406 2.832-1.44 3.917-2.056a1.09 1.09 0 0 1 1.076 0c1.085.616 2.945 1.65 3.916 2.056 1.005.42 1.886.677 2.596.833Z" stroke="#fff" stroke-width="1.5"/></svg>