<svg width="33" height="35" fill="none" xmlns="http://www.w3.org/2000/svg"><path d="M17.923 4.385 4.227 18.08M17.923 4.385H9.939m7.984 0 .009 7.993" stroke="#fff" stroke-width="1.5" stroke-miterlimit="10"/><path d="M22.527 11.762a2.25 2.25 0 0 1 2.25-2.25h4.462a2.25 2.25 0 0 1 2.25 2.25v19.63a2.25 2.25 0 0 1-2.25 2.25h-6.712v-21.88ZM13.635 18.563a2.25 2.25 0 0 1 2.25-2.25h6.188v17.33h-8.438v-15.08ZM4.22 24.838a2.25 2.25 0 0 1 2.25-2.25h6.71v11.054H6.47a2.25 2.25 0 0 1-2.25-2.25v-6.554Z" stroke="#fff" stroke-width="1.5"/></svg>