<svg width="66" height="66" viewBox="0 0 66 66" fill="none" xmlns="http://www.w3.org/2000/svg">
<g clip-path="url(#clip0_5815_2355)">
<path d="M17.5027 55.0395C17.5027 46.9235 24.5887 34.6502 33.3375 34.6502C42.0864 34.6502 49.1724 46.9235 49.1724 55.0395M49.955 15.5392C55.3284 15.5392 59.6718 19.895 59.6718 25.256C59.6718 30.617 55.316 34.9729 49.955 34.9729C49.955 34.9729 63.7174 37.5913 64.3379 55.0395M16.7208 15.5392C11.3474 15.5392 7.00396 19.895 7.00396 25.256C7.00396 30.617 11.3598 34.9729 16.7208 34.9729C16.7208 34.9729 2.95838 37.5913 2.33789 55.0395M44.556 22.6872C44.556 29.164 39.3055 34.4144 32.8287 34.4144C26.352 34.4144 21.1015 29.164 21.1015 22.6872C21.1015 16.2104 26.352 10.96 32.8287 10.96C39.3055 10.96 44.556 16.2104 44.556 22.6872Z" stroke="white" stroke-width="3" stroke-miterlimit="10"/>
</g>
<defs>
<clipPath id="clip0_5815_2355">
<rect width="65" height="65" fill="white" transform="translate(0.837891 0.5)"/>
</clipPath>
</defs>
</svg>
