<svg width="36" height="36" fill="none" xmlns="http://www.w3.org/2000/svg"><path d="M3.467 7.797h9.865v11.28H3.467a1.96 1.96 0 0 1-1.959-1.96V9.756a1.96 1.96 0 0 1 1.959-1.96ZM13.332 19.08l12.549 6.338a1.957 1.957 0 0 0 2.84-1.747V3.21a1.957 1.957 0 0 0-2.84-1.748L13.332 7.796V19.08Z" stroke="#fff" stroke-width="1.5" stroke-miterlimit="10"/><path d="M7.11 19.06h6.221v14.23a1.96 1.96 0 0 1-1.958 1.959H9.069a1.96 1.96 0 0 1-1.959-1.96V19.06ZM28.724 8.88h1.685a4.558 4.558 0 0 1 4.556 4.557 4.558 4.558 0 0 1-4.556 4.557h-1.685V8.88Z" stroke="#fff" stroke-width="1.5" stroke-miterlimit="10"/></svg>