<svg width="65" height="66" viewBox="0 0 65 66" fill="none" xmlns="http://www.w3.org/2000/svg">
<path d="M5.4041 13.9414H23.393V34.5094H5.4041C3.43232 34.5094 1.83203 32.9091 1.83203 30.9373V17.5135C1.83203 15.5417 3.43232 13.9414 5.4041 13.9414Z" stroke="white" stroke-width="3" stroke-miterlimit="10"/>
<path d="M23.3926 34.5162L46.2753 46.0754C48.6543 47.2756 51.4548 45.5467 51.4548 42.8891V5.57526C51.4548 2.9105 48.6471 1.18876 46.2753 2.38898L23.3926 13.9411V34.509V34.5162Z" stroke="white" stroke-width="3" stroke-miterlimit="10"/>
<path d="M12.0469 34.4805H23.3918V60.428C23.3918 62.3998 21.7915 64.0001 19.8197 64.0001H15.6189C13.6472 64.0001 12.0469 62.3998 12.0469 60.428V34.4805Z" stroke="white" stroke-width="3" stroke-miterlimit="10"/>
<path d="M51.4609 15.9199H54.5329C59.1195 15.9199 62.8416 19.642 62.8416 24.2286C62.8416 28.8151 59.1195 32.5372 54.5329 32.5372H51.4609V15.9271V15.9199Z" stroke="white" stroke-width="3" stroke-miterlimit="10"/>
</svg>
