<svg width="36" height="36" fill="none" xmlns="http://www.w3.org/2000/svg"><path d="M18.24 25.039a7.079 7.079 0 1 0 0-14.158 7.079 7.079 0 0 0 0 14.158Z" stroke="#fff" stroke-width="1.5" stroke-miterlimit="10"/><path d="M33.441 21.379a2 2 0 0 0 1.796-1.99v-2.86a2 2 0 0 0-1.796-1.99l-1.507-.155c-.793-.081-1.447-.642-1.752-1.378-.305-.737-.234-1.588.269-2.206l.956-1.174a2 2 0 0 0-.137-2.677l-2.023-2.023a2 2 0 0 0-2.677-.137l-1.173.955c-.62.504-1.47.574-2.207.269-.735-.304-1.297-.958-1.378-1.75l-.155-1.509A2 2 0 0 0 19.667.96h-2.86a2 2 0 0 0-1.99 1.795l-.155 1.508c-.081.793-.643 1.447-1.379 1.752-.736.305-1.587.234-2.205-.27L9.903 4.79a2 2 0 0 0-2.676.137L5.203 6.949a2 2 0 0 0-.136 2.677l.955 1.173c.503.619.574 1.47.269 2.207-.304.735-.958 1.297-1.75 1.378l-1.509.155a2 2 0 0 0-1.795 1.99v2.86a2 2 0 0 0 1.795 1.99l1.508.155c.792.081 1.447.642 1.751 1.378.305.737.235 1.587-.268 2.206l-.956 1.174a2 2 0 0 0 .136 2.677l2.024 2.023a2 2 0 0 0 2.676.137l1.174-.955c.619-.503 1.47-.574 2.206-.269.736.304 1.298.958 1.379 1.75l.155 1.509a2 2 0 0 0 1.99 1.795h2.86a2 2 0 0 0 1.99-1.795l.155-1.508c.081-.793.642-1.447 1.378-1.752.737-.305 1.587-.234 2.205.27l1.175.955a2 2 0 0 0 2.677-.137l2.023-2.023a2 2 0 0 0 .137-2.677l-.955-1.173c-.504-.619-.574-1.47-.27-2.207.305-.735.959-1.297 1.75-1.378l1.51-.155Z" stroke="#fff" stroke-width="1.5" stroke-miterlimit="10"/></svg>