<svg width="66" height="66" viewBox="0 0 66 66" fill="none" xmlns="http://www.w3.org/2000/svg">
<g clip-path="url(#clip0_5815_2112)">
<path d="M16.0807 50.8863V37.1763M50.6051 50.8863V37.1763M33.414 17.0462V2M46.746 5.66914V26.4862C46.746 28.1431 45.4028 29.4862 43.746 29.4862H22.9289C21.2721 29.4862 19.9289 28.1431 19.9289 26.4862V5.66914C19.9289 4.01228 21.2721 2.66914 22.9289 2.66914H43.746C45.4028 2.66914 46.746 4.01228 46.746 5.66914ZM64.0094 40.1763V61C64.0094 62.6569 62.6663 64 61.0094 64H40.1924C38.5355 64 37.1924 62.6569 37.1924 61V40.1763C37.1924 38.5194 38.5355 37.1763 40.1924 37.1763H61.0094C62.6663 37.1763 64.0094 38.5194 64.0094 40.1763ZM29.485 40.1763V61C29.485 62.6568 28.1419 64 26.485 64H5.66797C4.01112 64 2.66797 62.6568 2.66797 61V40.1763C2.66797 38.5194 4.01111 37.1763 5.66797 37.1763H26.485C28.1419 37.1763 29.485 38.5194 29.485 40.1763Z" stroke="white" stroke-width="3" stroke-miterlimit="10"/>
</g>
<defs>
<clipPath id="clip0_5815_2112">
<rect width="65" height="65" fill="white" transform="translate(0.837891 0.5)"/>
</clipPath>
</defs>
</svg>
