<svg width="41" height="37" fill="none" xmlns="http://www.w3.org/2000/svg"><g clip-path="url(#a)"><path d="M10.773 27.84v-7.518m18.932 7.518v-7.518m-9.427-11.04v-8.25m7.311 3.366v8.706a3 3 0 0 1-3 3h-8.706a3 3 0 0 1-3-3V4.398a3 3 0 0 1 3-3h8.706a3 3 0 0 1 3 3Zm9.467 18.924v8.71a3 3 0 0 1-3 3H25.35a3 3 0 0 1-3-3v-8.71a3 3 0 0 1 3-3h8.706a3 3 0 0 1 3 3Zm-18.933 0v8.71a3 3 0 0 1-3 3H6.417a3 3 0 0 1-3-3v-8.71a3 3 0 0 1 3-3h8.706a3 3 0 0 1 3 3Z" stroke="#fff" stroke-width="1.5" stroke-miterlimit="10"/></g><defs><clipPath id="a"><path fill="#fff" transform="translate(0 .031)" d="M0 0h40.474v36H0z"/></clipPath></defs></svg>