<svg width="33" height="37" fill="none" xmlns="http://www.w3.org/2000/svg"><path d="m25.46 22.512 1.589 3.216c.105.21.297.354.526.383l3.552.517c.574.086.804.794.392 1.197l-2.565 2.507a.712.712 0 0 0-.201.623l.603 3.532a.703.703 0 0 1-1.024.737l-3.178-1.666a.71.71 0 0 0-.651 0l-3.178 1.666a.705.705 0 0 1-1.024-.737l.603-3.532a.712.712 0 0 0-.201-.623l-2.566-2.508a.698.698 0 0 1 .393-1.196l3.551-.517a.688.688 0 0 0 .527-.383l1.588-3.216a.703.703 0 0 1 1.264 0ZM12.567 19.412a9.046 9.046 0 1 0 0-18.092 9.046 9.046 0 0 0 0 18.091ZM.745 35.32c0-6.26 5.466-15.726 12.214-15.726 2.642 0 5.083 1.445 7.084 3.59" stroke="#fff" stroke-width="1.5" stroke-miterlimit="10"/></svg>