<svg width="61" height="66" viewBox="0 0 61 66" fill="none" xmlns="http://www.w3.org/2000/svg">
<path d="M47.1566 40.6448L50.0541 46.5097C50.2462 46.8937 50.5953 47.1555 51.0142 47.2079L57.49 48.1505C58.5373 48.3075 58.9562 49.5992 58.2056 50.3323L53.5277 54.9055C53.2309 55.2023 53.0913 55.6212 53.1611 56.0401L54.2608 62.481C54.4353 63.5283 53.3357 64.3312 52.3931 63.825L46.5981 60.7878C46.2315 60.5958 45.7777 60.5958 45.4111 60.7878L39.6161 63.825C38.6735 64.3137 37.5739 63.5283 37.7484 62.481L38.8481 56.0401C38.9179 55.6212 38.7782 55.2023 38.4815 54.9055L33.8036 50.3323C33.0356 49.5818 33.4545 48.2901 34.5192 48.1505L40.995 47.2079C41.4139 47.1555 41.7805 46.8762 41.955 46.5097L44.8526 40.6448C45.3239 39.6848 46.6853 39.6848 47.1566 40.6448Z" stroke="white" stroke-width="3" stroke-miterlimit="10"/>
<path d="M23.6453 34.9899C32.7552 34.9899 40.1403 27.6048 40.1403 18.4949C40.1403 9.38503 32.7552 2 23.6453 2C14.5354 2 7.15039 9.38503 7.15039 18.4949C7.15039 27.6048 14.5354 34.9899 23.6453 34.9899Z" stroke="white" stroke-width="3" stroke-miterlimit="10"/>
<path d="M2.08789 63.9998C2.08789 52.5842 12.0547 35.3213 24.3604 35.3213C29.178 35.3213 33.629 37.957 37.2771 41.8669" stroke="white" stroke-width="3" stroke-miterlimit="10"/>
</svg>
