<svg width="62" height="66" viewBox="0 0 62 66" fill="none" xmlns="http://www.w3.org/2000/svg">
<path d="M34.5615 8.13183L8.37851 34.3148M34.5615 8.13183L19.2977 8.13197M34.5615 8.13183L34.5789 23.4132" stroke="white" stroke-width="3" stroke-miterlimit="10"/>
<path d="M43.4297 19.5C43.4297 18.6716 44.1013 18 44.9297 18H58.9297C59.7581 18 60.4297 18.6716 60.4297 19.5V62.5C60.4297 63.3284 59.7581 64 58.9297 64H43.4297V19.5Z" stroke="white" stroke-width="3"/>
<path d="M26.4297 32.5C26.4297 31.6716 27.1013 31 27.9297 31H42.4297V64H26.4297V32.5Z" stroke="white" stroke-width="3"/>
<path d="M8.42969 44.5C8.42969 43.6716 9.10126 43 9.92969 43H25.4297V64H9.92969C9.10126 64 8.42969 63.3284 8.42969 62.5V44.5Z" stroke="white" stroke-width="3"/>
</svg>
