<svg width="36" height="32" fill="none" xmlns="http://www.w3.org/2000/svg"><path d="M31.325 0c1.023 0 2.004.375 2.727 1.041.723.667 1.13 1.572 1.13 2.515v24.888c0 .943-.407 1.848-1.13 2.515A4.029 4.029 0 0 1 31.325 32H4.327A4.029 4.029 0 0 1 1.6 30.959C.877 30.292.47 29.387.47 28.444V3.556c0-.943.407-1.848 1.13-2.515A4.029 4.029 0 0 1 4.327 0h26.998Zm-.964 27.556v-9.423c0-1.537-.663-3.01-1.842-4.098-1.178-1.087-2.777-1.697-4.445-1.697-1.639 0-3.548.924-4.474 2.31v-1.972h-5.38v14.88h5.38V18.79c0-1.369 1.196-2.489 2.68-2.489a2.82 2.82 0 0 1 1.91.73c.506.466.79 1.099.79 1.76v8.764h5.38ZM7.953 9.884c.86 0 1.683-.314 2.29-.874.608-.56.95-1.32.95-2.112 0-1.654-1.447-3.005-3.24-3.005-.864 0-1.693.317-2.305.88a2.89 2.89 0 0 0-.954 2.125c0 1.653 1.465 2.986 3.259 2.986Zm2.68 17.672v-14.88H5.292v14.88h5.341Z" fill="#3A4551"/></svg>