<svg width="34" height="31" fill="none" xmlns="http://www.w3.org/2000/svg"><path d="M29.692.246c.96 0 1.88.351 2.557.976.678.626 1.06 1.473 1.06 2.357v23.334c0 .884-.382 1.732-1.06 2.357a3.777 3.777 0 0 1-2.557.976H4.382a3.777 3.777 0 0 1-2.556-.976c-.678-.625-1.06-1.473-1.06-2.357V3.579c0-.884.382-1.731 1.06-2.357A3.777 3.777 0 0 1 4.382.246h25.31Zm-.904 25.833v-8.833c0-1.44-.62-2.823-1.726-3.842-1.105-1.019-2.604-1.591-4.167-1.591-1.537 0-3.327.866-4.194 2.166v-1.85h-5.044v13.95H18.7v-8.216c0-1.284 1.12-2.334 2.512-2.334.672 0 1.316.246 1.79.684.475.437.742 1.03.742 1.65v8.216h5.043ZM7.781 9.513c.806 0 1.578-.295 2.148-.82.57-.525.89-1.238.89-1.98 0-1.55-1.357-2.817-3.038-2.817-.81 0-1.587.297-2.16.825a2.71 2.71 0 0 0-.895 1.992c0 1.55 1.374 2.8 3.055 2.8Zm2.513 16.566V12.13H5.286v13.95h5.008Z" fill="#3A4551"/></svg>