<svg width="33" height="32" fill="none" xmlns="http://www.w3.org/2000/svg"><path d="M17.838.002c1.169-.005 2.337.007 3.505.035l.31.011c.36.013.713.03 1.14.048 1.704.08 2.866.35 3.886.744a7.79 7.79 0 0 1 2.837 1.847 7.853 7.853 0 0 1 1.846 2.833c.396 1.02.665 2.183.745 3.885.019.425.035.78.048 1.139l.01.31c.028 1.167.04 2.334.036 3.501l.002 1.194v2.096c.004 1.167-.009 2.335-.037 3.502l-.01.31c-.013.359-.029.712-.048 1.14-.08 1.702-.352 2.863-.746 3.883a7.815 7.815 0 0 1-1.846 2.835 7.87 7.87 0 0 1-2.837 1.844c-1.02.396-2.182.664-3.885.744-.428.02-.782.036-1.14.048l-.31.01c-1.169.028-2.337.04-3.506.037l-1.194.001h-2.096c-1.168.004-2.336-.008-3.504-.037l-.31-.01c-.38-.013-.76-.029-1.14-.047-1.704-.08-2.867-.352-3.888-.746a7.829 7.829 0 0 1-2.835-1.844 7.846 7.846 0 0 1-1.848-2.835C.628 25.46.36 24.299.28 22.596c-.018-.38-.034-.759-.048-1.139l-.008-.31c-.03-1.167-.043-2.335-.04-3.502v-3.29c-.005-1.167.007-2.334.035-3.5l.011-.311c.013-.358.029-.714.048-1.14.08-1.703.349-2.863.744-3.884a7.807 7.807 0 0 1 1.851-2.832A7.84 7.84 0 0 1 5.706.84C6.727.445 7.888.176 9.593.096l1.14-.048.31-.008C12.212.01 13.38-.002 14.548 0l3.291.002Zm-1.645 8a8.01 8.01 0 0 0-7.498 4.911 7.996 7.996 0 0 0 4.4 10.51 8.013 8.013 0 0 0 3.098.577c2.123 0 4.159-.843 5.66-2.343a7.997 7.997 0 0 0-5.66-13.655Zm0 3.2a4.806 4.806 0 0 1 4.517 2.94 4.797 4.797 0 0 1-2.651 6.317 4.806 4.806 0 0 1-1.865.34 4.804 4.804 0 0 1-4.803-4.8 4.798 4.798 0 0 1 4.803-4.799l-.001.002Zm8.405-5.6A2.002 2.002 0 0 0 22.677 7.6a2 2 0 0 0 1.92 1.998 2.002 2.002 0 0 0 2.002-2 2 2 0 0 0-2.001-2v.004Z" fill="#3A4551"/></svg>