<svg width="66" height="66" viewBox="0 0 66 66" fill="none" xmlns="http://www.w3.org/2000/svg">
<g clip-path="url(#clip0_5815_3183)">
<path d="M11.4777 53.3868H9.97767H11.4777ZM42.4394 53.3868H43.9394H42.4394ZM23.8987 51.628C23.0703 51.628 22.3987 52.2996 22.3987 53.128C22.3987 53.9565 23.0703 54.628 23.8987 54.628V51.628ZM39.0371 8.5961H40.5371H39.0371ZM10.4423 54.628C11.2707 54.628 11.9423 53.9565 11.9423 53.128C11.9423 52.2996 11.2707 51.628 10.4423 51.628V54.628ZM2.33789 33.1798L0.837891 33.1719V33.1798H2.33789ZM2.46746 8.35594L0.967484 8.34811L2.46746 8.35594ZM39.0377 19.5162C38.2092 19.5162 37.5377 20.1878 37.5377 21.0162C37.5377 21.8446 38.2092 22.5162 39.0377 22.5162V19.5162ZM56.7794 21.0162L56.7799 19.5162H56.7794V21.0162ZM58.5125 22.4452L59.9282 21.9495L59.928 21.9488L58.5125 22.4452ZM64.1734 38.6135L62.7577 39.1092L62.7582 39.1106L64.1734 38.6135ZM64.3379 39.5889H65.8379L65.8379 39.5863L64.3379 39.5889ZM64.3379 50.7196H65.8379H64.3379ZM62.4404 53.128V54.628V53.128ZM56.4316 51.628C55.6031 51.628 54.9316 52.2996 54.9316 53.128C54.9316 53.9565 55.6031 54.628 56.4316 54.628V51.628ZM42.2002 54.628C43.0286 54.628 43.7002 53.9565 43.7002 53.128C43.7002 52.2996 43.0286 51.628 42.2002 51.628V54.628ZM17.67 61.0792C19.7102 61.0792 21.6667 60.2688 23.1093 58.8262L20.988 56.7048C20.108 57.5848 18.9145 58.0792 17.67 58.0792V61.0792ZM23.1093 58.8262C24.5519 57.3836 25.3624 55.427 25.3624 53.3868H22.3624C22.3624 54.6313 21.868 55.8249 20.988 56.7048L23.1093 58.8262ZM25.3624 53.3868C25.3624 51.3467 24.5519 49.3901 23.1093 47.9475L20.988 50.0689C21.868 50.9488 22.3624 52.1424 22.3624 53.3868H25.3624ZM23.1093 47.9475C21.6667 46.5049 19.7102 45.6945 17.67 45.6945V48.6945C18.9145 48.6945 20.108 49.1889 20.988 50.0689L23.1093 47.9475ZM17.67 45.6945C15.6299 45.6945 13.6733 46.5049 12.2307 47.9475L14.352 50.0689C15.232 49.1889 16.4255 48.6945 17.67 48.6945V45.6945ZM12.2307 47.9475C10.7881 49.3901 9.97767 51.3467 9.97767 53.3868H12.9777C12.9777 52.1424 13.472 50.9488 14.352 50.0689L12.2307 47.9475ZM9.97767 53.3868C9.97767 55.427 10.7881 57.3836 12.2307 58.8262L14.352 56.7048C13.472 55.8249 12.9777 54.6313 12.9777 53.3868H9.97767ZM12.2307 58.8262C13.6733 60.2688 15.6299 61.0792 17.67 61.0792V58.0792C16.4255 58.0792 15.232 57.5848 14.352 56.7048L12.2307 58.8262ZM48.6318 61.0792C50.6719 61.0792 52.6285 60.2688 54.0711 58.8262L51.9498 56.7048C51.0698 57.5848 49.8763 58.0792 48.6318 58.0792V61.0792ZM54.0711 58.8262C55.5137 57.3836 56.3242 55.427 56.3242 53.3868H53.3242C53.3242 54.6313 52.8298 55.8249 51.9498 56.7048L54.0711 58.8262ZM56.3242 53.3868C56.3242 51.3467 55.5137 49.3901 54.0711 47.9475L51.9498 50.0689C52.8298 50.9488 53.3242 52.1424 53.3242 53.3868H56.3242ZM54.0711 47.9475C52.6285 46.5049 50.6719 45.6945 48.6318 45.6945V48.6945C49.8763 48.6945 51.0698 49.1889 51.9498 50.0689L54.0711 47.9475ZM48.6318 45.6945C46.5917 45.6945 44.6351 46.5049 43.1925 47.9475L45.3138 50.0689C46.1938 49.1889 47.3873 48.6945 48.6318 48.6945V45.6945ZM43.1925 47.9475C41.7499 49.3901 40.9394 51.3467 40.9394 53.3868H43.9394C43.9394 52.1424 44.4338 50.9488 45.3138 50.0689L43.1925 47.9475ZM40.9394 53.3868C40.9394 55.427 41.7499 57.3836 43.1925 58.8262L45.3138 56.7048C44.4338 55.8249 43.9394 54.6313 43.9394 53.3868H40.9394ZM43.1925 58.8262C44.6351 60.2688 46.5917 61.0792 48.6318 61.0792V58.0792C47.3873 58.0792 46.1938 57.5848 45.3138 56.7048L43.1925 58.8262ZM23.8987 54.628H39.0371V51.628H23.8987V54.628ZM40.5371 53.128V8.5961H37.5371V53.128H40.5371ZM40.5371 8.5961C40.5371 7.69597 40.2378 6.79177 39.6464 6.09037L37.3529 8.02425C37.4497 8.13907 37.5371 8.3419 37.5371 8.5961H40.5371ZM39.6464 6.09037C39.0485 5.3813 38.1772 4.91992 37.2022 4.91992V7.91992C37.2071 7.91992 37.22 7.92059 37.243 7.9319C37.267 7.94367 37.3071 7.96989 37.3529 8.02425L39.6464 6.09037ZM37.2022 4.91992H4.41361V7.91992H37.2022V4.91992ZM10.4423 51.628H4.17285V54.628H10.4423V51.628ZM4.17285 51.628C4.16802 51.628 4.15505 51.6274 4.13201 51.6161L2.80928 54.3087C3.23149 54.5161 3.69574 54.628 4.17285 54.628V51.628ZM4.13201 51.6161C4.10772 51.6041 4.0676 51.5777 4.02208 51.5237L1.72859 53.4576C2.02386 53.8078 2.38831 54.1019 2.80928 54.3087L4.13201 51.6161ZM4.02208 51.5237C3.97622 51.4693 3.92917 51.3916 3.89368 51.29L1.06146 52.2792C1.2104 52.7057 1.43367 53.1078 1.72859 53.4576L4.02208 51.5237ZM3.89368 51.29C3.85821 51.1885 3.83789 51.073 3.83789 50.9519H0.837891C0.837891 51.4023 0.912492 51.8527 1.06146 52.2792L3.89368 51.29ZM3.83789 50.9519V33.1798H0.837891V50.9519H3.83789ZM0.967484 8.34811L0.837911 33.1719L3.83787 33.1876L3.96744 8.36376L0.967484 8.34811ZM4.41361 4.91992C2.51736 4.91992 0.977381 6.45188 0.967484 8.34811L3.96744 8.36376C3.96872 8.11826 4.1681 7.91992 4.41361 7.91992V4.91992ZM39.0377 22.5162H56.7794V19.5162H39.0377V22.5162ZM56.779 22.5162C56.7768 22.5162 56.7797 22.5155 56.7901 22.5194C56.801 22.5236 56.825 22.5347 56.8584 22.5623L58.767 20.2476C58.2158 19.7932 57.5258 19.5164 56.7799 19.5162L56.779 22.5162ZM56.8584 22.5623C56.9283 22.6199 57.0264 22.7401 57.097 22.9416L59.928 21.9488C59.7004 21.2997 59.3122 20.6972 58.767 20.2476L56.8584 22.5623ZM57.0968 22.9409L62.7577 39.1092L65.5892 38.1178L59.9282 21.9495L57.0968 22.9409ZM62.7582 39.1106C62.8084 39.2535 62.8376 39.4182 62.8379 39.5915L65.8379 39.5863C65.837 39.0873 65.7542 38.5875 65.5887 38.1163L62.7582 39.1106ZM62.8379 39.5889V50.7196H65.8379V39.5889H62.8379ZM62.8379 50.7196C62.8379 50.8825 62.8124 51.0383 62.7675 51.1759L65.6194 52.1067C65.7653 51.6599 65.8379 51.1893 65.8379 50.7196H62.8379ZM62.7675 51.1759C62.7225 51.3138 62.6625 51.4199 62.6039 51.4943L64.9604 53.3509C65.2541 52.9781 65.4737 52.5532 65.6194 52.1067L62.7675 51.1759ZM62.6039 51.4943C62.5455 51.5684 62.4954 51.6029 62.4685 51.617L63.8645 54.2724C64.2981 54.0445 64.6663 53.7241 64.9604 53.3509L62.6039 51.4943ZM62.4685 51.617C62.4552 51.624 62.4468 51.6265 62.4434 51.6274C62.4401 51.6282 62.4394 51.628 62.4404 51.628V54.628C62.9435 54.628 63.4288 54.5015 63.8645 54.2724L62.4685 51.617ZM62.4404 51.628H56.4316V54.628H62.4404V51.628ZM39.0371 54.628H42.2002V51.628H39.0371V54.628Z" fill="white"/>
</g>
<defs>
<clipPath id="clip0_5815_3183">
<rect width="65" height="65" fill="white" transform="translate(0.837891 0.5)"/>
</clipPath>
</defs>
</svg>
