<svg width="41" height="37" fill="none" xmlns="http://www.w3.org/2000/svg"><path d="M7.896 29.686h-.75.75Zm17.479 0h.75-.75Zm-10.467-.897a.75.75 0 1 0 0 1.5v-1.5ZM23.454 4.4h.75-.75ZM7.312 30.29a.75.75 0 0 0 0-1.5v1.5ZM2.737 18.277l-.75-.004v.004h.75ZM2.81 4.265l-.75-.004.75.004Zm20.644 6.397a.75.75 0 0 0 0 1.5v-1.5Zm10.016.75v-.75.75Zm.978.806.708-.247-.708.247Zm3.196 9.128-.708.247v.001l.708-.248Zm.093.55h.75v-.001l-.75.001Zm0 6.284h.75-.75Zm-1.071 1.36v.75-.75Zm-3.392-.75a.75.75 0 1 0 0 1.5v-1.5Zm-8.034 1.5a.75.75 0 0 0 0-1.5v1.5ZM11.392 33.93a4.246 4.246 0 0 0 3.002-1.243l-1.06-1.061a2.745 2.745 0 0 1-1.942.804v1.5Zm3.002-1.243a4.246 4.246 0 0 0 1.244-3.003h-1.5c0 .729-.29 1.427-.804 1.942l1.06 1.06Zm1.244-3.003a4.246 4.246 0 0 0-1.244-3.002l-1.06 1.061c.514.515.804 1.213.804 1.942h1.5Zm-1.244-3.002a4.246 4.246 0 0 0-3.002-1.243v1.5c.728 0 1.427.29 1.942.804l1.06-1.06Zm-3.002-1.243a4.246 4.246 0 0 0-3.002 1.243l1.06 1.061a2.746 2.746 0 0 1 1.942-.804v-1.5ZM8.39 26.683a4.246 4.246 0 0 0-1.244 3.003h1.5c0-.729.29-1.427.805-1.942l-1.061-1.06Zm-1.244 3.003c0 1.125.448 2.205 1.244 3.002l1.06-1.061a2.746 2.746 0 0 1-.804-1.941h-1.5Zm1.244 3.002a4.246 4.246 0 0 0 3.002 1.243v-1.5c-.728 0-1.427-.29-1.941-.804l-1.061 1.06Zm20.48 1.243a4.246 4.246 0 0 0 3.003-1.243l-1.061-1.061a2.746 2.746 0 0 1-1.942.804v1.5Zm3.003-1.243a4.246 4.246 0 0 0 1.243-3.003h-1.5c0 .729-.29 1.427-.804 1.942l1.06 1.06Zm1.243-3.003a4.246 4.246 0 0 0-1.243-3.002l-1.061 1.061c.515.515.804 1.213.804 1.942h1.5Zm-1.243-3.002a4.246 4.246 0 0 0-3.003-1.243v1.5c.729 0 1.427.29 1.942.804l1.06-1.06ZM28.87 25.44a4.246 4.246 0 0 0-3.002 1.243l1.061 1.061a2.746 2.746 0 0 1 1.942-.804v-1.5Zm-3.002 1.243a4.246 4.246 0 0 0-1.243 3.003h1.5c0-.729.29-1.427.804-1.942l-1.06-1.06Zm-1.243 3.003c0 1.125.447 2.205 1.243 3.002l1.061-1.061a2.746 2.746 0 0 1-.804-1.941h-1.5Zm1.243 3.002a4.246 4.246 0 0 0 3.003 1.243v-1.5c-.729 0-1.427-.29-1.942-.804l-1.06 1.06Zm-10.96-2.399h8.546v-1.5h-8.546v1.5Zm9.296-.75V4.4h-1.5v25.14h1.5Zm0-25.139c0-.487-.162-.975-.48-1.352l-1.147.967c.071.084.127.221.127.385h1.5Zm-.48-1.352a1.71 1.71 0 0 0-1.306-.626v1.5c.03 0 .092.013.16.093l1.146-.967Zm-1.306-.626H3.908v1.5h18.51v-1.5ZM7.312 28.789h-3.54v1.5h3.54v-1.5Zm-3.54 0a.148.148 0 0 1-.065-.016l-.661 1.346c.225.11.473.17.727.17v-1.5Zm-.065-.016a.296.296 0 0 1-.093-.077l-1.147.967c.158.188.354.346.579.456l.661-1.346Zm-.093-.077a.517.517 0 0 1-.09-.162l-1.416.494c.08.23.2.447.359.635l1.147-.967Zm-.09-.162a.68.68 0 0 1-.037-.223h-1.5c0 .244.04.487.12.717l1.417-.494Zm-.037-.223V18.278h-1.5v10.033h1.5ZM2.06 4.26l-.073 14.013 1.5.008L3.56 4.27l-1.5-.008Zm1.849-1.84a1.849 1.849 0 0 0-1.849 1.84l1.5.008a.349.349 0 0 1 .349-.347v-1.5Zm19.545 9.74H33.47v-1.5H23.454v1.5Zm10.016 0c.017 0 .054.006.106.049l.954-1.158a1.665 1.665 0 0 0-1.06-.39v1.5Zm.106.049a.58.58 0 0 1 .165.257l1.415-.497a2.073 2.073 0 0 0-.626-.918l-.954 1.158Zm.164.256 3.196 9.127 1.416-.495-3.196-9.127-1.416.495Zm3.196 9.128c.032.091.05.195.05.304l1.5-.003c0-.271-.045-.543-.134-.798l-1.416.497Zm.05.302v6.284h1.5v-6.284h-1.5Zm0 6.284c0 .102-.015.2-.044.287l1.426.466c.08-.242.119-.498.119-.753h-1.5Zm-.044.287a.682.682 0 0 1-.108.21l1.178.928c.158-.2.277-.43.356-.672l-1.426-.466Zm-.108.21a.35.35 0 0 1-.107.095l.698 1.328c.231-.122.429-.294.587-.495l-1.178-.928Zm-.107.095a.13.13 0 0 1-.061.017v1.5c.267 0 .526-.067.759-.19l-.698-1.327Zm-.061.017h-3.392v1.5h3.392v-1.5Zm-13.212 1.5h1.786v-1.5h-1.786v1.5Z" fill="#fff"/></svg>