<svg width="37" height="36" viewBox="0 0 37 36" fill="none" xmlns="http://www.w3.org/2000/svg">
<path d="M28.9909 1V28C28.9909 28.9193 28.81 29.8295 28.4586 30.6788C28.1071 31.5281 27.5919 32.2997 26.9425 32.9497C26.293 33.5998 25.522 34.1154 24.6735 34.4672C23.825 34.8189 22.9155 35 21.9971 35C21.0786 35 20.1691 34.8189 19.3206 34.4672C18.4721 34.1154 17.7011 33.5998 17.0516 32.9497C16.4022 32.2997 15.887 31.5281 15.5355 30.6788C15.1841 29.8295 15.0032 28.9193 15.0032 28V10C15.0032 8.14348 14.2663 6.36301 12.9547 5.05025C11.6431 3.7375 9.86417 3 8.00927 3C6.15438 3 4.37545 3.7375 3.06384 5.05025C1.75224 6.36301 1.01538 8.14348 1.01538 10V34M28.9909 1L35.9848 8M28.9909 1L21.9971 8" stroke="white" stroke-width="1.5" stroke-linecap="round" stroke-linejoin="round"/>
</svg>
