<svg width="41" height="32" viewBox="0 0 41 32" fill="none" xmlns="http://www.w3.org/2000/svg">
<path d="M9.72283 31C9.72283 25.4763 14.5455 17.1233 20.4999 17.1233C26.4543 17.1233 31.2769 25.4763 31.2769 31M30.247 4.11655C33.9041 4.11655 36.8602 7.08108 36.8602 10.7297C36.8602 14.3784 33.8956 17.3429 30.247 17.3429C30.247 17.3429 39.6135 19.125 40.0358 31M10.7532 4.11655C7.09611 4.11655 4.14003 7.08108 4.14003 10.7297C4.14003 14.3784 7.10456 17.3429 10.7532 17.3429C10.7532 17.3429 1.38665 19.125 0.964355 31M28.135 8.98142C28.135 13.3894 24.5616 16.9628 20.1536 16.9628C15.7456 16.9628 12.1722 13.3894 12.1722 8.98142C12.1722 4.5734 15.7456 1 20.1536 1C24.5616 1 28.135 4.5734 28.135 8.98142Z" stroke="white" stroke-width="1.5" stroke-miterlimit="10" stroke-linecap="round" stroke-linejoin="round"/>
</svg>
