<svg width="52" height="42" fill="none" xmlns="http://www.w3.org/2000/svg"><mask id="a" maskUnits="userSpaceOnUse" x="-2" y="-1.578" width="56" height="45" fill="#000"><path fill="#fff" d="M-2-1.578h56v45H-2z"/><path d="M16.88 19.462c2 .88 3.56 2.2 4.68 3.96 1.12 1.76 1.68 3.84 1.68 6.24 0 3.44-1.08 6.24-3.24 8.4-2.16 2.08-4.92 3.12-8.28 3.12-3.36 0-6.16-1.08-8.4-3.24-2.16-2.16-3.24-4.92-3.24-8.28 0-1.6.2-3.2.6-4.8.4-1.6 1.28-4 2.64-7.2L10.28.382h11.88l-5.28 19.08Zm28.32 0c2 .88 3.56 2.2 4.68 3.96 1.12 1.76 1.68 3.84 1.68 6.24 0 3.44-1.08 6.24-3.24 8.4-2.16 2.08-4.92 3.12-8.28 3.12-3.36 0-6.16-1.08-8.4-3.24-2.16-2.16-3.24-4.92-3.24-8.28 0-1.6.2-3.2.6-4.8.4-1.6 1.28-4 2.64-7.2L38.6.382h11.88l-5.28 19.08Z"/></mask><path d="m16.88 19.462-1.446-.4-.346 1.25 1.188.523.604-1.373Zm3.12 18.6 1.04 1.08.01-.01.01-.01-1.06-1.06Zm-16.68-.12-1.06 1.06.009.01.01.01 1.041-1.08ZM.68 24.862l-1.455-.364 1.455.364Zm2.64-7.2 1.38.587.006-.014.005-.013-1.391-.56ZM10.28.382v-1.5H9.267l-.378.94 1.391.56Zm11.88 0 1.446.4.525-1.9H22.16v1.5Zm23.04 19.08-1.446-.4-.346 1.25 1.188.523.604-1.373Zm3.12 18.6 1.04 1.08.01-.01.01-.01-1.06-1.06Zm-16.68-.12-1.06 1.06.009.01.01.01 1.041-1.08ZM29 24.862l-1.455-.364 1.455.364Zm2.64-7.2 1.38.587.006-.014.005-.013-1.391-.56ZM38.6.382v-1.5h-1.013l-.378.94 1.391.56Zm11.88 0 1.446.4.526-1.9H50.48v1.5ZM16.276 20.835c1.742.766 3.066 1.895 4.018 3.392l2.532-1.61c-1.288-2.023-3.084-3.535-5.342-4.528l-1.208 2.746Zm4.018 3.392c.945 1.485 1.446 3.276 1.446 5.435h3c0-2.642-.62-5.01-1.914-7.045l-2.532 1.61Zm1.446 5.435c0 3.097-.958 5.497-2.8 7.34l2.12 2.12c2.479-2.477 3.68-5.677 3.68-9.46h-3Zm-2.78 7.32c-1.846 1.777-4.217 2.7-7.24 2.7v3c3.697 0 6.846-1.157 9.32-3.54l-2.08-2.16Zm-7.24 2.7c-3.006 0-5.422-.952-7.359-2.82l-2.082 2.16c2.543 2.452 5.727 3.66 9.441 3.66v-3Zm-7.34-2.8c-1.849-1.85-2.8-4.214-2.8-7.22h-3c0 3.714 1.209 6.87 3.68 9.34l2.12-2.12Zm-2.8-7.22c0-1.474.184-2.952.555-4.436l-2.91-.728a21.225 21.225 0 0 0-.645 5.164h3Zm.555-4.436c.37-1.48 1.21-3.789 2.566-6.977L1.94 17.075C.574 20.286-.346 22.777-.776 24.498l2.91.728Zm2.576-7.004 6.96-17.28L8.89-.178l-6.96 17.28 2.782 1.12Zm5.569-16.34h11.88v-3H10.28v3Zm10.434-1.9-5.28 19.08 2.892.8 5.28-19.08-2.892-.8Zm23.882 20.853c1.742.766 3.066 1.895 4.019 3.392l2.53-1.61c-1.287-2.023-3.083-3.535-5.34-4.528l-1.21 2.746Zm4.019 3.392c.944 1.485 1.445 3.276 1.445 5.435h3c0-2.642-.62-5.01-1.915-7.045l-2.53 1.61Zm1.445 5.435c0 3.097-.958 5.497-2.8 7.34l2.12 2.12c2.478-2.477 3.68-5.677 3.68-9.46h-3Zm-2.78 7.32c-1.846 1.777-4.217 2.7-7.24 2.7v3c3.697 0 6.846-1.157 9.32-3.54l-2.08-2.16Zm-7.24 2.7c-3.006 0-5.422-.952-7.359-2.82l-2.082 2.16c2.543 2.452 5.727 3.66 9.441 3.66v-3Zm-7.34-2.8c-1.849-1.85-2.8-4.214-2.8-7.22h-3c0 3.714 1.209 6.87 3.68 9.34l2.12-2.12Zm-2.8-7.22c0-1.474.184-2.952.555-4.436l-2.91-.728a21.226 21.226 0 0 0-.645 5.164h3Zm.555-4.436c.37-1.48 1.21-3.789 2.566-6.977l-2.762-1.174c-1.364 3.211-2.284 5.702-2.714 7.423l2.91.728Zm2.576-7.004 6.96-17.28-2.782-1.12-6.96 17.28 2.782 1.12ZM38.6 1.882h11.88v-3H38.6v3Zm10.434-1.9-5.28 19.08 2.892.8 5.28-19.08-2.892-.8Z" fill="#E50040" mask="url(#a)"/></svg>