<svg width="66" height="66" viewBox="0 0 66 66" fill="none" xmlns="http://www.w3.org/2000/svg">
<path d="M33.3441 45.909C40.4734 45.909 46.2527 40.1296 46.2527 33.0004C46.2527 25.8712 40.4734 20.0918 33.3441 20.0918C26.2149 20.0918 20.4355 25.8712 20.4355 33.0004C20.4355 40.1296 26.2149 45.909 33.3441 45.909Z" stroke="white" stroke-width="3" stroke-miterlimit="10"/>
<path d="M62.5425 39.0839C63.5625 38.979 64.3379 38.1197 64.3379 37.0944V28.9056C64.3379 27.8803 63.5625 27.021 62.5425 26.9161L57.2555 26.3724C56.4517 26.2898 55.7841 25.7287 55.5091 24.9689C55.2665 24.2985 54.995 23.6425 54.695 23.0014C54.3524 22.269 54.4277 21.3994 54.9382 20.7723L58.2929 16.6509C58.9403 15.8555 58.8812 14.6993 58.156 13.9741L52.3638 8.18187C51.6386 7.45668 50.4824 7.39755 49.687 8.04498L45.5678 11.398C44.9395 11.9093 44.0682 11.9838 43.3345 11.6406C42.6949 11.3414 42.039 11.0705 41.3691 10.8284C40.6091 10.5538 40.0481 9.88617 39.9655 9.08239L39.4218 3.7954C39.3169 2.77543 38.4576 2 37.4323 2H29.2435C28.2182 2 27.3589 2.77543 27.254 3.7954L26.7103 9.08238C26.6276 9.88617 26.0666 10.5538 25.3068 10.8288C24.6364 11.0714 23.9804 11.3429 23.3393 11.6428C22.6069 11.9855 21.7373 11.9102 21.1102 11.3997L16.9887 8.04498C16.1934 7.39755 15.0372 7.45668 14.312 8.18187L8.51976 13.9741C7.79457 14.6993 7.73544 15.8555 8.38287 16.6509L11.7358 20.7701C12.2472 21.3983 12.3217 22.2697 11.9785 23.0034C11.6793 23.643 11.4084 24.2988 11.1663 24.9688C10.8917 25.7287 10.2241 26.2898 9.42028 26.3724L4.13329 26.9161C3.11332 27.021 2.33789 27.8803 2.33789 28.9056V37.0944C2.33789 38.1197 3.11332 38.979 4.13329 39.0839L9.42028 39.6276C10.2241 39.7102 10.8917 40.2713 11.1667 41.0311C11.4093 41.7015 11.6808 42.3575 11.9807 42.9986C12.3234 43.731 12.2481 44.6006 11.7376 45.2277L8.38287 49.3491C7.73544 50.1445 7.79457 51.3007 8.51976 52.0259L14.312 57.8181C15.0372 58.5433 16.1934 58.6024 16.9887 57.955L21.108 54.602C21.7362 54.0907 22.6076 54.0162 23.3413 54.3594C23.9808 54.6586 24.6367 54.9295 25.3067 55.1716C26.0666 55.4462 26.6276 56.1138 26.7103 56.9176L27.254 62.2046C27.3589 63.2246 28.2182 64 29.2435 64H37.4323C38.4576 64 39.3169 63.2246 39.4218 62.2046L39.9655 56.9176C40.0481 56.1138 40.6092 55.4462 41.369 55.1712C42.0393 54.9286 42.6954 54.6571 43.3365 54.3572C44.0689 54.0145 44.9385 54.0898 45.5656 54.6003L49.687 57.955C50.4824 58.6024 51.6386 58.5433 52.3638 57.8181L58.156 52.0259C58.8812 51.3007 58.9403 50.1445 58.2929 49.3491L54.9399 45.2299C54.4286 44.6017 54.3541 43.7303 54.6973 42.9966C54.9965 42.357 55.2674 41.7012 55.5094 41.0312C55.784 40.2713 56.4517 39.7102 57.2555 39.6276L62.5425 39.0839Z" stroke="white" stroke-width="3" stroke-miterlimit="10"/>
</svg>
