<svg width="47" height="36" fill="none" xmlns="http://www.w3.org/2000/svg"><path d="m11.79 18.895-4.41 4.566c-.965 1-1.449 1.5-1.617 1.925-.38.965-.053 2.037.775 2.545.365.222 1.022.291 2.335.431.743.079 1.113.116 1.423.236a2.564 2.564 0 0 1 1.494 1.546c.115.323.152.705.23 1.475.132 1.36.2 2.04.414 2.416.49.859 1.527 1.195 2.457.802.412-.172.895-.672 1.861-1.674l6.748-6.988 6.748 6.988c.966 1.002 1.45 1.502 1.86 1.674.931.393 1.967.057 2.458-.802.214-.376.28-1.056.415-2.416.077-.77.114-1.152.229-1.475.258-.719.798-1.28 1.494-1.546.31-.12.68-.157 1.423-.236 1.313-.14 1.97-.21 2.335-.431.828-.509 1.156-1.58.775-2.545-.169-.424-.652-.925-1.618-1.925l-4.41-4.566M21.973 9.99c.68-1.222 1.02-1.83 1.528-1.83s.848.608 1.528 1.83l.176.315c.193.347.29.519.44.633.152.115.34.158.716.242l.34.079c1.32.298 1.98.447 2.138.952.157.506-.293 1.032-1.194 2.084l-.232.272c-.256.3-.385.448-.442.634-.057.186-.038.385 0 .784l.036.363c.136 1.405.204 2.108-.206 2.42-.412.31-1.03.026-2.267-.543l-.319-.147c-.352-.16-.528-.241-.714-.241-.186 0-.361.08-.714.241l-.318.147c-1.237.571-1.856.854-2.267.542-.412-.311-.342-1.014-.206-2.42l.035-.362c.038-.4.058-.598 0-.784-.057-.184-.186-.335-.441-.634l-.233-.272c-.9-1.052-1.351-1.578-1.194-2.085.158-.504.818-.653 2.139-.951l.34-.08c.376-.083.563-.125.716-.24.15-.115.246-.287.44-.634l.175-.315Zm14.053 3.538a12.527 12.527 0 1 1-25.054 0 12.527 12.527 0 0 1 25.054 0Z" stroke="#fff" stroke-width="1.5"/></svg>