<svg width="22" height="22" fill="none" xmlns="http://www.w3.org/2000/svg"><path d="M6.75 5v-.8c0-1.77 0-3.2 3.2-3.2h1.6c3.2 0 3.2 1.43 3.2 3.2V5m-2 8.02V12c0-1 0-1-1-1h-2c-1 0-1 0-1 1v1.03m4-.01c0 1.09-.01 1.98-2 1.98-1.98 0-2-.88-2-1.97m4-.01A16.483 16.483 0 0 0 20.4 10M8.75 13.03c-2.59-.29-5.13-1.22-7.38-2.76M6.75 21h8c4.02 0 4.74-1.61 4.95-3.57l.75-8c.27-2.44-.43-4.43-4.7-4.43h-10C1.48 5 .78 6.99 1.05 9.43l.75 8c.21 1.96.93 3.57 4.95 3.57Z" stroke="#fff" stroke-width="2" stroke-miterlimit="10" stroke-linecap="round" stroke-linejoin="round"/></svg>