<svg width="31" height="31" fill="none" xmlns="http://www.w3.org/2000/svg"><path d="M17.533.248c1.095-.004 2.19.007 3.285.033l.291.01c.337.012.668.027 1.07.045 1.596.075 2.686.327 3.642.698.99.38 1.825.897 2.66 1.73a7.36 7.36 0 0 1 1.73 2.657c.371.956.623 2.046.698 3.642.018.4.033.732.045 1.068l.01.291c.026 1.094.037 2.188.034 3.282l.001 1.119v1.965c.004 1.094-.008 2.189-.034 3.283l-.01.291c-.011.336-.026.668-.044 1.068-.075 1.596-.33 2.685-.7 3.64a7.324 7.324 0 0 1-1.73 2.659 7.376 7.376 0 0 1-2.66 1.729c-.956.37-2.046.622-3.643.697-.4.018-.732.033-1.069.045l-.29.01c-1.096.026-2.19.038-3.286.034l-1.12.001h-1.965a118.37 118.37 0 0 1-3.285-.034l-.291-.01a90.705 90.705 0 0 1-1.07-.044c-1.596-.075-2.686-.33-3.643-.7A7.34 7.34 0 0 1 3.5 27.729a7.355 7.355 0 0 1-1.732-2.657c-.37-.956-.623-2.045-.698-3.64l-.045-1.069-.007-.29a118.51 118.51 0 0 1-.038-3.284v-3.084c-.004-1.094.007-2.188.033-3.282l.01-.29c.013-.337.028-.67.046-1.069.075-1.597.327-2.685.698-3.642a7.32 7.32 0 0 1 1.735-2.655 7.35 7.35 0 0 1 2.657-1.732C7.116.664 8.204.41 9.803.336l1.069-.045.29-.007c1.095-.028 2.19-.04 3.285-.038l3.086.002Zm-1.543 7.5a7.51 7.51 0 0 0-7.03 4.604 7.495 7.495 0 0 0 4.125 9.854c.923.37 1.91.554 2.905.54 1.99 0 3.899-.79 5.306-2.197A7.497 7.497 0 0 0 15.99 7.748Zm0 3a4.506 4.506 0 0 1 4.235 2.757 4.496 4.496 0 0 1-2.486 5.922c-.555.221-1.15.33-1.748.319a4.504 4.504 0 0 1-4.502-4.5 4.498 4.498 0 0 1 4.502-4.5l-.001.002Zm7.88-5.25a1.877 1.877 0 0 0-1.801 1.873 1.874 1.874 0 0 0 1.8 1.874 1.877 1.877 0 0 0 1.877-1.875 1.874 1.874 0 0 0-1.876-1.875v.003Z" fill="#3A4551"/></svg>